<svg width="22" height="22" viewBox="0 0 22 22" fill="none" xmlns="http://www.w3.org/2000/svg">
<g clip-path="url(#clip0_460_51)">
<path fill-rule="evenodd" clip-rule="evenodd" d="M4.57889 19.3116V11.1949C4.57889 10.8049 4.87855 10.6239 5.27227 10.6239H16.1218C16.5155 10.6239 16.8152 10.8049 16.8152 11.1949V19.3116C16.8152 19.5316 16.6275 19.801 16.2849 19.801H5.10909C4.76987 19.801 4.57885 19.5361 4.57885 19.3116H4.57889ZM6.41433 6.78979C6.41433 5.23036 7.38791 3.79608 8.76638 3.10524C9.93404 2.52006 11.4332 2.50412 12.6005 3.09162C14.0001 3.79593 14.9797 5.20216 14.9797 6.78979V9.35942H6.41433V6.78979ZM5.14989 6.9937V9.40019C4.84162 9.40019 4.57211 9.43402 4.30985 9.57982C3.72694 9.90392 3.31445 10.4431 3.31445 11.1948V19.1892C3.31445 19.8 3.51339 20.1645 3.80992 20.4884L3.88926 20.5723C4.17427 20.8478 4.62948 21.0655 5.02755 21.0655H16.3665C16.604 21.0655 16.9013 20.9614 17.0748 20.8765L17.4623 20.6113C17.4688 20.6053 17.5142 20.5632 17.5253 20.552C17.8583 20.2169 18.0796 19.8206 18.0796 19.1892V11.1949C18.0796 10.4401 17.6719 9.92322 17.1096 9.59517C16.8348 9.43485 16.5742 9.40019 16.2441 9.40019V6.95294C16.2441 5.30214 15.5169 3.91846 14.684 3.08829C12.9281 1.3381 10.5816 0.922053 8.291 1.93652C8.13761 2.00447 8.01868 2.07887 7.86975 2.16784L7.45022 2.4417C6.14803 3.34056 5.14985 5.0324 5.14985 6.99366L5.14989 6.9937Z" fill="#C8C8C8"/>
<path fill-rule="evenodd" clip-rule="evenodd" d="M10.085 14.2947C10.085 13.6568 10.8705 13.5814 11.1439 13.8883C11.481 14.2666 11.2788 14.9065 10.6968 14.9065C10.3322 14.9065 10.085 14.6533 10.085 14.2947V14.2947ZM8.86133 14.1316C8.86133 14.706 8.86536 14.984 9.2623 15.4845C9.51324 15.8008 9.73239 15.862 10.085 16.0486C10.085 16.6235 9.98611 17.5401 10.2357 17.8148C10.5275 18.1359 11.3082 18.1117 11.3108 17.356C11.3123 16.9208 11.3086 16.484 11.3086 16.0485C11.6238 15.8818 11.8413 15.841 12.1308 15.484C12.9638 14.4569 12.5691 12.4592 10.5744 12.4592C10.1235 12.4592 9.64502 12.7336 9.40085 12.9579C9.15504 13.1839 8.86133 13.6753 8.86133 14.1315V14.1316Z" fill="#C8C8C8"/>
</g>
<defs>
<clipPath id="clip0_460_51">
<rect width="21.3933" height="21.3933" fill="white" transform="translate(0.0117188 0.563965)"/>
</clipPath>
</defs>
</svg>
