<svg width="22" height="22" viewBox="0 0 22 22" fill="none" xmlns="http://www.w3.org/2000/svg">
<path fill-rule="evenodd" clip-rule="evenodd" d="M6.94627 7.58891C6.93167 7.51349 7.01064 6.83888 7.03019 6.73272C7.16856 5.98146 7.55959 5.41674 8.00082 4.88298C8.1731 4.67454 8.81901 4.21432 9.09476 4.09666C9.81478 3.78932 9.897 3.82831 10.613 3.73229C11.0503 3.67367 11.759 3.87437 12.1693 4.03728C12.6588 4.23168 12.9309 4.46654 13.3083 4.77854C13.4181 4.86922 13.4318 4.92246 13.5191 5.02045C13.9786 5.53638 14.1408 5.89407 14.3407 6.56664C14.4137 6.81253 14.4246 7.13368 14.4591 7.39075C14.5177 7.82797 14.317 8.53667 14.1541 8.94701C13.9277 9.51715 13.5935 9.9204 13.1709 10.2968C12.655 10.7563 12.2973 10.9185 11.6247 11.1183C11.1367 11.2634 10.4742 11.2567 9.9551 11.1611C9.20384 11.0227 8.63909 10.6317 8.10533 10.1905L7.67206 9.6836C7.29368 9.16801 7.00662 8.45505 6.98168 7.79729C6.97585 7.64397 6.9616 7.66794 6.9463 7.58895L6.94627 7.58891ZM10.4841 2.33115H10.9367C13.0013 2.42309 14.9073 3.7652 15.5949 5.83462C15.9962 7.04243 15.9464 8.27553 15.5023 9.38989C15.3277 9.82793 15.0161 10.3819 14.7353 10.712C14.5573 10.9212 14.4246 11.0614 14.2328 11.2542L13.6665 11.7324C13.7618 11.7782 13.877 11.8175 13.9932 11.8584C14.1363 11.9088 14.1764 11.9416 14.308 11.9962C14.5379 12.0917 14.7169 12.1831 14.9205 12.2891C15.0219 12.3419 15.0974 12.3906 15.2093 12.4529C15.3112 12.5095 15.3936 12.5592 15.4915 12.6234C17.9461 14.231 19.6207 16.8671 19.6207 20.1588H18.2279C18.2279 18.7245 17.7084 16.9825 16.8701 15.8758C16.7057 15.6588 16.4294 15.2794 16.2351 15.0831L15.5207 14.4048C15.122 14.0239 14.3111 13.5515 13.7944 13.3107C13.3656 13.1109 12.8887 12.9587 12.3854 12.8393C12.0354 12.7563 11.1059 12.6361 10.7068 12.6361L9.83007 12.7011C9.53771 12.7443 9.27867 12.7799 9.02814 12.8393C7.9714 13.0901 6.64937 13.682 5.89294 14.4048C5.12755 15.1361 5.25058 14.9425 4.54356 15.8758C3.70522 16.9825 3.18575 18.7245 3.18575 20.1587H1.79297C1.79297 16.8826 3.4835 14.189 5.94321 12.6095L6.51636 12.2774C7.07265 11.995 7.38885 11.9043 7.74717 11.7324C7.68581 11.6486 7.53719 11.5642 7.44275 11.4797C7.10821 11.1802 6.9787 11.0795 6.6626 10.693C6.37576 10.3422 6.0803 9.81696 5.90131 9.36508C5.44325 8.2086 5.44695 6.95404 5.82742 5.80833C6.15246 4.82952 6.83137 3.94518 7.58294 3.38548C8.49325 2.70754 9.49786 2.37486 10.4841 2.33105L10.4841 2.33115Z" fill="#0984E3"/>
</svg>
